# xmcd
#
# Track frame offsets:
#	150
#	19965
#	37702
#	54502
#	72422
#	89132
#	109235
#	127267
#	143115
#	163380
#	180627
#	199170
#	218185
#	237102
#	260530
#
# Disc length: 3770 seconds
#
# Revision: 685276951
# Processed by: cddbd v1.5.2PL0 Copyright (c) Steve Scherf et al.
# Submitted via: EZCDAudioConverter 9.0.5.1
#
DISCID=e60eb80f
DTITLE=Culture Club - Spin Dazzle: The Best Of Boy George And Culture Club (Ja
DTITLE=pan VJCP-28126) DE-Magnetic (EZ-9.05-WAV)
DYEAR=1992
DGENRE=New Wave
TTITLE0=Culture Club - Do You Really Want To Hurt Me
TTITLE1=Boy George - Everything I Own
TTITLE2=Jesus Loves You - Bow Down Mister (A Small Portion 2 B Polite Mix)
TTITLE3=Jesus Loves You - Generations Of Love (La La Gone Gaga Mix)
TTITLE4=Culture Club - Time (Clock Of The Heart)
TTITLE5=Boy George - To Be Reborn
TTITLE6=Culture Club - Karma Chameleon
TTITLE7=Culture Club - Church Of The Poison Mind
TTITLE8=Culture Club - Miss Me Blind
TTITLE9=Culture Club - Love Is Love
TTITLE10=Boy George - Don't Cry
TTITLE11=Jesus Loves You - After The Love (Naughty Norman Normal's Nightie Edi
TTITLE11=t)
TTITLE12=Jesus Loves You - Love Hurts (Yes It Doz U Blighter Mix)
TTITLE13=Jesus Loves You - One On One (Massive Attack Mix)
TTITLE14=Culture Club - Victims
EXTD=
EXTT0=
EXTT1=
EXTT2=
EXTT3=
EXTT4=
EXTT5=
EXTT6=
EXTT7=
EXTT8=
EXTT9=
EXTT10=
EXTT11=
EXTT12=
EXTT13=
EXTT14=
PLAYORDER=
